<svg width="128" height="56" viewBox="0 0 128 56" fill="none" xmlns="http://www.w3.org/2000/svg">
<path d="M29.8625 23.9624V8.00098L26.3855 6V13.9646L19.4314 9.96118L9 15.9656V39.9839L19.4314 45.9882L26.3855 41.9849V46.0002L22.9127 47.9985L26.3899 50L29.8625 48.0015V27.969L19.4314 21.9714L12.4771 25.9739V17.9634L19.4314 13.9604L26.3855 17.9634V21.9612L29.8625 23.9624ZM19.4314 25.9749L22.9084 27.9758L19.4314 29.9771L15.9542 27.9758L19.4314 25.9749ZM19.4314 33.9789L26.3855 29.9771V37.983L19.4314 41.9856L12.4771 37.983V29.9771L19.4314 33.9789Z" fill="url(#paint0_linear_1723_2713)"/>
<path d="M44.355 22.5991C43.5524 22.0194 42.6602 21.7964 41.7682 21.7964C39.0924 21.7964 36.8625 23.9816 36.8625 26.6575V31.2958C36.8625 34.1946 38.9586 36.1568 41.8575 36.1568C44.5335 36.1568 46.8525 33.9716 46.8525 31.2958V17.2029H44.355V22.5991ZM44.355 31.2958C44.355 32.7229 43.3293 33.8378 41.8575 33.8378C40.4303 33.8378 39.36 32.7229 39.36 31.2958L39.4046 26.6575C39.4046 25.1858 40.4303 24.1154 41.8575 24.1154C43.3293 24.1154 44.355 25.1858 44.355 26.6575V31.2958Z" fill="#F9F9F9"/>
<path d="M54.1214 21.7964C51.4456 21.7964 49.1265 23.9816 49.1265 26.6575V31.2957C49.1265 34.1946 51.2225 36.1568 54.1214 36.1568C56.7973 36.1568 59.1164 33.9715 59.1164 31.2957H56.6188C56.6188 32.7229 55.5931 33.8378 54.1214 33.8378C52.6942 33.8378 51.624 32.7229 51.624 31.2957V30.1362H59.1164V26.6575C59.1164 23.7586 57.0203 21.7964 54.1214 21.7964ZM56.6188 27.8171H51.6686V26.6575C51.6686 25.1857 52.6942 24.1154 54.1214 24.1154C55.5931 24.1154 56.6188 25.1857 56.6188 26.6575V27.8171Z" fill="#F9F9F9"/>
<path d="M62.0152 20.6368V22.0193H60.7664V24.3384H62.0152V35.9338H64.5126V24.3384H65.7613V22.0193H64.5126V20.6368C64.5126 19.9232 65.0032 19.4772 65.6722 19.4772H65.8951V17.1582H65.4938C63.4869 17.1582 62.0152 18.5853 62.0152 20.6368Z" fill="#F9F9F9"/>
<path d="M72.4061 21.7964C69.7302 21.7964 67.4111 23.9816 67.4111 26.6575V31.2957C67.4111 34.1946 69.4181 36.1568 72.1832 36.1568C73.3428 36.1568 74.4577 35.7556 74.9482 35.1311V35.9339C74.9482 37.4502 73.9671 38.6098 72.4507 38.6098C72.4349 38.6098 72.4199 38.608 72.4042 38.6078V40.7941C72.4197 40.7941 72.4351 40.795 72.4507 40.795C75.082 40.795 77.4011 38.8327 77.4011 35.9339V26.6575C77.4011 23.7586 75.3049 21.7964 72.4061 21.7964ZM74.9036 31.2957C74.9036 32.7229 73.8779 33.8378 72.4061 33.8378C70.979 33.8378 69.9086 32.7229 69.9086 31.2957V26.6575C69.9086 25.1857 70.979 24.1154 72.4061 24.1154C73.8779 24.1154 74.9036 25.1857 74.9036 26.6575V31.2957Z" fill="#F9F9F9"/>
<path d="M86.9002 31.2957C86.9002 32.7228 85.8745 33.8378 84.4026 33.8378C82.9755 33.8378 81.9052 32.7228 81.9052 31.2957V22.0193H79.4077V31.2957C79.4077 34.1945 81.4593 36.1567 84.358 36.1567C86.9002 36.1567 89.3976 34.1945 89.3976 31.2957V22.0193H86.9002V31.2957Z" fill="#F9F9F9"/>
<path d="M96.4885 21.7964C93.9018 21.7964 91.4935 23.6694 91.4935 26.5683H93.8572C93.8572 25.052 94.883 23.9816 96.3992 23.9816C97.9156 23.9816 98.9413 25.1411 98.9413 26.6575V27.5049H98.8967C98.1832 26.925 97.3359 26.6129 96.3101 26.6129C93.6342 26.6129 91.4043 28.709 91.4043 31.385C91.4043 34.2838 93.4113 36.1568 96.1763 36.1568C97.3359 36.1568 98.4062 35.7556 98.9413 35.1311V35.9339H101.394V26.6575C101.394 23.7586 99.3873 21.7964 96.4885 21.7964ZM96.3992 33.927C94.9721 33.927 93.9018 32.8121 93.9018 31.385C93.9018 29.9132 94.9721 28.8429 96.3992 28.8429C97.871 28.8429 98.8967 29.9132 98.8967 31.385C98.8967 32.8121 97.871 33.927 96.3992 33.927Z" fill="#F9F9F9"/>
<path d="M103.312 25.4979V35.9338H105.81V25.4979C105.81 24.7843 106.3 24.3384 106.969 24.3384H107.682V22.0193H106.791C104.784 22.0193 103.312 23.4464 103.312 25.4979Z" fill="#F9F9F9"/>
<path d="M116.557 17.2029V22.5991C115.754 22.0194 114.862 21.7964 113.97 21.7964C111.294 21.7964 109.064 23.9816 109.064 26.6575V31.2958C109.064 34.1946 111.161 36.1568 114.06 36.1568C116.735 36.1568 119.054 33.9716 119.054 31.2958V17.2029H116.557ZM116.557 31.2958C116.557 32.7229 115.531 33.8378 114.06 33.8378C112.632 33.8378 111.562 32.7229 111.562 31.2958L111.607 26.6575C111.607 25.1858 112.632 24.1154 114.06 24.1154C115.531 24.1154 116.557 25.1858 116.557 26.6575V31.2958Z" fill="#F9F9F9"/>
<defs>
<linearGradient id="paint0_linear_1723_2713" x1="19.4313" y1="6" x2="19.4313" y2="50" gradientUnits="userSpaceOnUse">
<stop stop-color="#2ACCFF"/>
<stop offset="1" stop-color="#0071D4"/>
</linearGradient>
</defs>
</svg>
