<svg width="21" height="44" viewBox="0 0 21 44" fill="none" xmlns="http://www.w3.org/2000/svg">
  <path d="M20.8899 17.9624V2.00098L17.4128 0V7.9646L10.4587 3.96118L0.0273438 9.96558V33.9839L10.4587 39.9882L17.4128 35.9849V40.0002L13.9401 41.9985L17.4172 44L20.8899 42.0015V21.969L10.4587 15.9714L3.50439 19.9739V11.9634L10.4587 7.96045L17.4128 11.9634V15.9612L20.8899 17.9624ZM10.4587 19.9749L13.9358 21.9758L10.4587 23.9771L6.98157 21.9758L10.4587 19.9749ZM10.4587 27.9789L17.4128 23.9771V31.983L10.4587 35.9856L3.50439 31.983V23.9771L10.4587 27.9789Z" fill="url(#paint0_linear_2976_16865)"/>
  <defs>
    <linearGradient id="paint0_linear_2976_16865" x1="10.4586" y1="0" x2="10.4586" y2="44" gradientUnits="userSpaceOnUse">
      <stop stop-color="#2ACCFF"/>
      <stop offset="1" stop-color="#0071D4"/>
    </linearGradient>
  </defs>
</svg>
