<svg width="84" height="24" viewBox="0 0 84 24" fill="none" xmlns="http://www.w3.org/2000/svg">
  <path d="M8.42365 5.62253C7.62097 5.0428 6.72885 4.81985 5.83682 4.81985C3.16104 4.81985 0.931152 7.00504 0.931152 9.68094V14.3192C0.931152 17.218 3.02719 19.1803 5.92606 19.1803C8.60208 19.1803 10.9211 16.995 10.9211 14.3192V0.226318H8.42365V5.62253ZM8.42365 14.3192C8.42365 15.7463 7.39792 16.8613 5.92606 16.8613C4.49893 16.8613 3.42859 15.7463 3.42859 14.3192L3.47321 9.68094C3.47321 8.2092 4.49893 7.13885 5.92606 7.13885C7.39792 7.13885 8.42365 8.2092 8.42365 9.68094V14.3192Z" fill="#222222"/>
  <path d="M18.19 4.81982C15.5142 4.81982 13.1951 7.005 13.1951 9.68091V14.3192C13.1951 17.218 15.2911 19.1803 18.19 19.1803C20.8659 19.1803 23.185 16.995 23.185 14.3192H20.6874C20.6874 15.7463 19.6617 16.8613 18.19 16.8613C16.7628 16.8613 15.6926 15.7463 15.6926 14.3192V13.1596H23.185V9.68091C23.185 6.78204 21.0889 4.81982 18.19 4.81982ZM20.6874 10.8405H15.7372V9.68091C15.7372 8.20917 16.7628 7.13885 18.19 7.13885C19.6617 7.13885 20.6874 8.20917 20.6874 9.68091V10.8405Z" fill="#222222"/>
  <path d="M26.0838 3.66022V5.04272H24.835V7.36186H26.0838V18.9573H28.5812V7.36186H29.8299V5.04272H28.5812V3.66022C28.5812 2.94667 29.0718 2.50066 29.7408 2.50066H29.9637V0.181641H29.5624C27.5555 0.181641 26.0838 1.60878 26.0838 3.66022Z" fill="#222222"/>
  <path d="M36.4747 4.81982C33.7988 4.81982 31.4797 7.005 31.4797 9.68091V14.3192C31.4797 17.218 33.4867 19.1803 36.2518 19.1803C37.4114 19.1803 38.5263 18.779 39.0168 18.1545V18.9573C39.0168 20.4737 38.0357 21.6332 36.5193 21.6332C36.5035 21.6332 36.4885 21.6314 36.4728 21.6312V23.8176C36.4883 23.8176 36.5037 23.8184 36.5193 23.8184C39.1506 23.8184 41.4697 21.8562 41.4697 18.9573V9.68091C41.4697 6.78204 39.3735 4.81982 36.4747 4.81982ZM38.9722 14.3192C38.9722 15.7463 37.9465 16.8613 36.4747 16.8613C35.0476 16.8613 33.9772 15.7463 33.9772 14.3192V9.68091C33.9772 8.20917 35.0476 7.13885 36.4747 7.13885C37.9465 7.13885 38.9722 8.20917 38.9722 9.68091V14.3192Z" fill="#222222"/>
  <path d="M50.9688 14.3191C50.9688 15.7462 49.9431 16.8612 48.4713 16.8612C47.0441 16.8612 45.9738 15.7462 45.9738 14.3191V5.04272H43.4763V14.3191C43.4763 17.218 45.5279 19.1802 48.4266 19.1802C50.9688 19.1802 53.4662 17.218 53.4662 14.3191V5.04272H50.9688V14.3191Z" fill="#222222"/>
  <path d="M60.5571 4.81982C57.9704 4.81982 55.5621 6.69284 55.5621 9.59171H57.9258C57.9258 8.07547 58.9516 7.005 60.4678 7.005C61.9842 7.005 63.0099 8.16458 63.0099 9.68091V10.5283H62.9653C62.2518 9.94846 61.4045 9.63632 60.3787 9.63632C57.7028 9.63632 55.4729 11.7325 55.4729 14.4084C55.4729 17.3073 57.4799 19.1803 60.2449 19.1803C61.4045 19.1803 62.4748 18.779 63.0099 18.1545V18.9573H65.463V9.68091C65.463 6.78204 63.4559 4.81982 60.5571 4.81982ZM60.4678 16.9505C59.0407 16.9505 57.9704 15.8355 57.9704 14.4084C57.9704 12.9367 59.0407 11.8663 60.4678 11.8663C61.9396 11.8663 62.9653 12.9367 62.9653 14.4084C62.9653 15.8355 61.9396 16.9505 60.4678 16.9505Z" fill="#222222"/>
  <path d="M67.3806 8.5213V18.9572H69.8781V8.5213C69.8781 7.80771 70.3686 7.36185 71.0375 7.36185H71.751V5.04272H70.8592C68.8524 5.04272 67.3806 6.46985 67.3806 8.5213Z" fill="#222222"/>
  <path d="M80.6255 0.226318V5.62253C79.8228 5.0428 78.9309 4.81985 78.039 4.81985C75.363 4.81985 73.1331 7.00504 73.1331 9.68094V14.3192C73.1331 17.218 75.2291 19.1803 78.1281 19.1803C80.804 19.1803 83.123 16.995 83.123 14.3192V0.226318H80.6255ZM80.6255 14.3192C80.6255 15.7463 79.5999 16.8613 78.1281 16.8613C76.7008 16.8613 75.6305 15.7463 75.6305 14.3192L75.6751 9.68094C75.6751 8.2092 76.7008 7.13885 78.1281 7.13885C79.5999 7.13885 80.6255 8.2092 80.6255 9.68094V14.3192Z" fill="#222222"/>
</svg>
