<svg width="18" height="18" viewBox="0 0 18 18" fill="none" xmlns="http://www.w3.org/2000/svg">
  <mask style="mask-type:luminance" maskUnits="userSpaceOnUse" x="0" y="0" width="18" height="18">
    <path d="M18 0L0 0L0 18H18V0Z" fill="white"/>
  </mask>
  <g mask="url(#mask0)">
    <path d="M8.41801 11.8278L14.2683 5.97759C14.5914 5.65443 14.5914 5.13048 14.2683 4.80733C13.9451 4.48417 13.4212 4.48417 13.098 4.80733L7.24775 10.6576C6.92459 10.9807 6.92459 11.5047 7.24775 11.8278C7.57091 12.151 8.09486 12.151 8.41801 11.8278Z" fill="white"/>
    <path d="M8.37011 10.6992L4.86003 7.18907C4.53687 6.86591 4.01293 6.86591 3.68977 7.18907C3.36661 7.51223 3.36661 8.03618 3.68977 8.35934L7.19985 11.8694C7.52301 12.1926 8.04695 12.1926 8.37011 11.8694C8.69327 11.5463 8.69327 11.0223 8.37011 10.6992Z" fill="white"/>
  </g>
</svg>
