<svg width="24" height="25" viewBox="0 0 24 25" fill="none" xmlns="http://www.w3.org/2000/svg">
  <path d="M15.8451 9.8446C15.6205 9.84417 15.4036 9.76319 15.2337 9.61638C15.0638 9.46957 14.9522 9.26667 14.9192 9.04455C14.7206 7.72653 14.4177 6.42636 14.0133 5.1563C13.9411 4.91981 13.9653 4.66437 14.0806 4.44565C14.1959 4.22693 14.393 4.06266 14.6289 3.98863C14.8648 3.91461 15.1203 3.93684 15.3399 4.05047C15.5595 4.1641 15.7252 4.35992 15.8011 4.59527C16.235 5.95909 16.56 7.35523 16.7729 8.77053C16.7925 8.90387 16.7831 9.03985 16.7453 9.16921C16.7076 9.29858 16.6424 9.4183 16.5543 9.52022C16.4662 9.62214 16.3571 9.70387 16.2345 9.75985C16.112 9.81582 15.9798 9.84473 15.8451 9.8446ZM13.4074 11.0637H8.88696C9.02502 9.05404 9.41364 7.06953 10.0438 5.1563C10.0806 5.03883 10.094 4.91525 10.0831 4.79262C10.0721 4.66999 10.0372 4.55071 9.98017 4.44159C9.92316 4.33248 9.84522 4.23566 9.7508 4.15667C9.65639 4.07768 9.54734 4.01807 9.42989 3.98123C9.31243 3.94439 9.18888 3.93105 9.06627 3.94197C8.94366 3.9529 8.82441 3.98786 8.71531 4.04488C8.49499 4.16004 8.32942 4.35802 8.25504 4.59527C7.56573 6.68946 7.14706 8.86323 7.0092 11.0637H4.6905C4.56483 11.0596 4.43961 11.0808 4.3223 11.126C4.20498 11.1713 4.09797 11.2397 4.00762 11.3272C3.91726 11.4146 3.84542 11.5194 3.79635 11.6352C3.74729 11.751 3.722 11.8755 3.722 12.0012C3.722 12.127 3.74729 12.2515 3.79635 12.3673C3.84542 12.4831 3.91726 12.5878 4.00762 12.6753C4.09797 12.7627 4.20498 12.8311 4.3223 12.8764C4.43961 12.9217 4.56483 12.9429 4.6905 12.9388H7.0102C7.14725 15.1367 7.5632 17.3083 8.24804 19.4012C8.32816 19.631 8.49444 19.8207 8.71176 19.9301C8.92908 20.0396 9.18043 20.0603 9.41274 19.9879C9.64504 19.9154 9.8401 19.7555 9.95673 19.542C10.0734 19.3284 10.1024 19.0778 10.0378 18.8432C9.41067 16.9287 9.02408 14.9437 8.88696 12.9338H13.4074C13.6507 12.9258 13.8814 12.8236 14.0507 12.6486C14.22 12.4737 14.3146 12.2397 14.3146 11.9962C14.3146 11.7527 14.22 11.5188 14.0507 11.3438C13.8814 11.1689 13.6507 11.0666 13.4074 11.0587V11.0637ZM22.9131 9.9516C22.674 10.0177 22.4183 9.9863 22.2023 9.86427C21.9862 9.74225 21.8273 9.53955 21.7603 9.30056C21.2607 7.49649 20.271 5.86622 18.9009 4.59082C17.5309 3.31542 15.8343 2.44481 13.9994 2.07568C12.1645 1.70655 10.2632 1.85335 8.50673 2.49977C6.75023 3.14619 5.20725 4.26694 4.04916 5.73753C2.89107 7.20813 2.1632 8.97101 1.94639 10.8304C1.72958 12.6898 2.03231 14.5729 2.82096 16.2706C3.60961 17.9682 4.85331 19.4141 6.41394 20.4474C7.97457 21.4808 9.79103 22.0613 11.6616 22.1244C11.9029 22.1388 12.1293 22.2458 12.2936 22.4232C12.4579 22.6006 12.5474 22.8345 12.5434 23.0763C12.5394 23.318 12.4423 23.5489 12.2722 23.7207C12.1021 23.8926 11.8723 23.9921 11.6306 23.9985H11.5986C9.26048 23.9205 6.99614 23.1606 5.08421 21.8122C3.17228 20.4638 1.69616 18.5858 0.837475 16.4093C-0.0212086 14.2327 -0.224993 11.8525 0.251194 9.56166C0.727382 7.27077 1.86277 5.16908 3.51765 3.5152C5.57978 1.45339 8.322 0.213179 11.2318 0.0263692C14.1416 -0.16044 17.0198 0.718933 19.3286 2.50014C21.3822 4.0898 22.8689 6.29916 23.5681 8.80053C23.6009 8.91919 23.61 9.04315 23.5948 9.16533C23.5797 9.2875 23.5407 9.40551 23.48 9.51259C23.4192 9.61967 23.338 9.71374 23.2409 9.78941C23.1438 9.86508 23.0328 9.92087 22.9141 9.9536L22.9131 9.9516ZM19.0776 10.5516C18.3823 10.5516 17.7026 10.7579 17.1245 11.1442C16.5464 11.5306 16.0958 12.0798 15.8297 12.7223C15.5636 13.3648 15.494 14.0718 15.6296 14.7538C15.7653 15.4359 16.1001 16.0625 16.5918 16.5542C17.0834 17.046 17.7098 17.3808 18.3918 17.5165C19.0737 17.6522 19.7806 17.5826 20.423 17.3164C21.0654 17.0503 21.6144 16.5996 22.0007 16.0214C22.387 15.4431 22.5932 14.7633 22.5932 14.0679C22.5932 13.1351 22.2231 12.2405 21.5641 11.5805C20.9051 10.9204 20.0112 10.549 19.0786 10.5476L19.0776 10.5516ZM19.0776 15.708C18.7531 15.708 18.4359 15.6117 18.1661 15.4314C17.8962 15.2511 17.6859 14.9948 17.5617 14.6949C17.4376 14.395 17.4051 14.065 17.4684 13.7467C17.5317 13.4284 17.688 13.1359 17.9174 12.9064C18.1469 12.6769 18.4393 12.5206 18.7575 12.4573C19.0758 12.394 19.4057 12.4265 19.7055 12.5507C20.0054 12.6749 20.2616 12.8852 20.4419 13.1551C20.6222 13.425 20.7184 13.7423 20.7184 14.0669C20.7163 14.5006 20.5427 14.916 20.2354 15.2221C19.9282 15.5283 19.5123 15.7004 19.0786 15.701L19.0776 15.708ZM24 23.0644C24 21.8477 23.5174 20.6806 22.6582 19.8193C21.7989 18.958 20.6331 18.4728 19.4166 18.4701H18.7407C17.5242 18.4728 16.3584 18.958 15.4991 19.8193C14.6398 20.6806 14.1573 21.8477 14.1573 23.0644C14.1652 23.3078 14.2675 23.5385 14.4424 23.7078C14.6173 23.8772 14.8512 23.9719 15.0947 23.9719C15.3381 23.9719 15.572 23.8772 15.7469 23.7078C15.9218 23.5385 16.0241 23.3078 16.032 23.0644C16.0315 22.3448 16.3164 21.6544 16.8242 21.1446C17.332 20.6349 18.0212 20.3474 18.7407 20.3453H19.4156C20.1351 20.3474 20.8243 20.6349 21.3321 21.1446C21.8399 21.6544 22.1248 22.3448 22.1242 23.0644C22.1322 23.3078 22.2344 23.5385 22.4094 23.7078C22.5843 23.8772 22.8182 23.9719 23.0616 23.9719C23.3051 23.9719 23.539 23.8772 23.7139 23.7078C23.8888 23.5385 23.992 23.3078 24 23.0644Z" fill="#899CA8"/>
</svg>
