<svg width="24" height="24" viewBox="0 0 24 24" fill="none" xmlns="http://www.w3.org/2000/svg">
<path d="M12.0002 23.5014C11.872 23.5012 11.7449 23.4767 11.6259 23.4294C9.42584 22.4069 7.48325 20.9112 5.93941 19.0511C4.28633 17.1263 2.99205 14.9252 2.11713 12.5507C0.933509 9.25862 0.351743 5.78364 0.399167 2.28904C0.399109 2.12072 0.441904 1.95512 0.523585 1.80757C0.605266 1.66001 0.723192 1.53528 0.866437 1.44494C1.00968 1.35459 1.17361 1.30154 1.34304 1.29071C1.51247 1.27988 1.68191 1.31162 1.83568 1.38298C3.00633 1.82806 4.25315 2.04307 5.50664 2.01602C7.60897 1.99414 9.68027 1.51051 11.5715 0.59993C11.7057 0.537337 11.8523 0.504883 12.0007 0.504883C12.1491 0.504883 12.2956 0.537337 12.4299 0.59993C14.3203 1.51244 16.3913 1.99812 18.4937 2.02202C19.7466 2.05031 20.9929 1.83561 22.1627 1.38998C22.3161 1.31815 22.4853 1.28585 22.6547 1.29607C22.8241 1.30628 22.9881 1.35867 23.1316 1.4484C23.2751 1.53813 23.3935 1.6623 23.4757 1.80941C23.558 1.95653 23.6015 2.12183 23.6022 2.29004C23.6506 5.78446 23.0699 9.25943 21.8873 12.5517C21.0124 14.9262 19.7181 17.1273 18.065 19.0521C16.5212 20.9122 14.5786 22.4079 12.3785 23.4304C12.2582 23.4779 12.1297 23.502 12.0002 23.5014ZM2.44498 3.66812C2.68104 9.32548 4.37983 14.1418 7.39408 17.661C8.67339 19.1876 10.2372 20.4558 12.0002 21.3962C13.7631 20.4561 15.3269 19.1883 16.6063 17.662C19.6206 14.1428 21.3193 9.32648 21.5554 3.66912C20.5522 3.90422 19.5246 4.02137 18.4937 4.01814C16.2531 3.9997 14.0412 3.51665 12.0002 2.60006C9.95909 3.51631 7.74718 3.99901 5.50664 4.01714C4.47581 4.02037 3.44817 3.90322 2.44498 3.66812Z" fill="#899CA8"/>
<path d="M12.0055 4.50024C12.8514 4.50472 13.6751 4.76885 14.3634 5.25633C15.0517 5.74381 15.5707 6.4307 15.8492 7.22254C16.1276 8.01439 16.1518 8.8723 15.9184 9.67832C15.685 10.4843 15.2054 11.1989 14.5456 11.7237V15.5589C14.5456 16.2268 14.278 16.8673 13.8017 17.3395C13.3253 17.8118 12.6792 18.0771 12.0055 18.0771C11.3318 18.0771 10.6858 17.8118 10.2094 17.3395C9.73303 16.8673 9.46541 16.2268 9.46541 15.5589V11.7237C8.80623 11.1986 8.32721 10.4841 8.09414 9.67823C7.86108 8.87239 7.88539 8.01478 8.16375 7.2232C8.44211 6.43161 8.96086 5.74488 9.64875 5.25732C10.3366 4.76976 11.1599 4.5053 12.0055 4.50024ZM12.0055 16.088C12.1455 16.0864 12.2792 16.0298 12.3772 15.9306C12.4752 15.8314 12.5294 15.6977 12.5281 15.5589V11.2017C12.5284 11.0265 12.5752 10.8544 12.6637 10.7028C12.7523 10.5511 12.8794 10.4252 13.0325 10.3376C13.4249 10.1142 13.7319 9.76853 13.9058 9.35436C14.0797 8.94018 14.1107 8.48067 13.9941 8.04721C13.8774 7.61375 13.6197 7.2306 13.2608 6.9573C12.902 6.684 12.4621 6.53584 12.0096 6.53584C11.557 6.53584 11.1172 6.684 10.7583 6.9573C10.3995 7.2306 10.1417 7.61375 10.0251 8.04721C9.90843 8.48067 9.93947 8.94018 10.1134 9.35436C10.2872 9.76853 10.5942 10.1142 10.9867 10.3376C11.1397 10.4252 11.2669 10.5511 11.3554 10.7028C11.4439 10.8544 11.4907 11.0265 11.491 11.2017V15.5589C11.4894 15.6966 11.5425 15.8293 11.6387 15.9285C11.735 16.0276 11.8667 16.0853 12.0055 16.089V16.088Z" fill="#899CA8"/>
</svg>
