<svg width="101" height="25" viewBox="0 0 101 25" fill="none" xmlns="http://www.w3.org/2000/svg">
  <path d="M16.2921 3.70227C11.1487 3.70227 7.58643 7.59213 7.58643 12.288C7.58643 16.9839 11.0243 21.3556 16.7807 21.3556C21.3556 21.3556 23.6564 18.3593 24.0384 17.5358L20.1653 14.671C19.8455 15.1441 18.513 16.2042 16.9584 16.2042C15.4038 16.2042 14.1956 15.4858 13.8758 14.1979H24.4115C24.4826 13.7949 24.527 13.1115 24.527 12.7699C24.527 6.97011 21.8353 3.70227 16.301 3.70227H16.2921ZM13.8758 10.86C13.9469 10.0189 14.5776 8.47699 16.2921 8.47699C17.8911 8.47699 18.6373 9.86122 18.7084 10.86H13.8758Z" fill="white"/>
  <path d="M100 12.7699C100 6.97011 97.3084 3.70227 91.774 3.70227C86.6306 3.70227 83.0684 7.59213 83.0684 12.288C83.0684 16.9839 86.5062 21.3556 92.2626 21.3556C96.8376 21.3556 99.1384 18.3593 99.5203 17.5358L95.6472 14.671C95.3274 15.1441 93.9949 16.2042 92.4403 16.2042C90.8857 16.2042 89.6776 15.4858 89.3578 14.1979H99.8934C99.9645 13.7949 100.009 13.1115 100.009 12.7699H100ZM89.3578 10.86C89.4288 10.0189 90.0596 8.47699 91.774 8.47699C93.3731 8.47699 94.1193 9.86122 94.1903 10.86H89.3578Z" fill="white"/>
  <path d="M34.6806 3.70227C29.3684 3.70227 25.4863 7.74983 25.4863 12.7699C25.4863 17.7899 29.3684 21.3556 34.6806 21.3556C39.9929 21.3556 43.8749 17.7811 43.8749 12.7699C43.8749 7.75859 39.9929 3.70227 34.6806 3.70227ZM34.6806 16.1078C33.0017 16.1078 31.7757 14.7148 31.7757 12.5508C31.7757 10.3869 32.9928 8.95008 34.6806 8.95008C36.3684 8.95008 37.5855 10.3781 37.5855 12.5508C37.5855 14.7235 36.3684 16.1078 34.6806 16.1078Z" fill="white"/>
  <path d="M55.4853 3.70224C53.4155 3.70224 51.7365 4.90249 51.1325 5.75231V4.17533H45.3228V20.8737H51.1325V10.8512C51.1325 9.905 51.8609 8.94129 53.069 8.94129C54.0817 8.94129 55.0056 9.5896 55.0056 10.8512V20.8737H61.295V9.89623C61.295 6.0677 59.4651 3.69348 55.4853 3.69348V3.70224Z" fill="white"/>
  <path d="M70.0008 4.1842H63.7114V20.8826H70.0008V4.1842Z" fill="white"/>
  <path d="M79.1239 0.36438H73.3142V4.18415H71.8662V8.95887H73.3142V15.1616C73.3142 19.6122 75.2774 21.3644 79.6036 21.3644C81.1316 21.3644 82.0199 20.8913 82.0199 20.8913V16.1166H81.4158C80.4653 16.1166 79.1239 15.9589 79.1239 14.8024V8.95887H82.0288V4.18415H79.1239V0.36438Z" fill="white"/>
  <path d="M66.8563 3.7023C68.7307 3.7023 70.2409 2.20418 70.2409 0.36438H63.4629C63.4629 2.21294 64.9819 3.7023 66.8474 3.7023H66.8563Z" fill="white"/>
  <path d="M4.35285 14.7937V8.95011H6.28942V4.17539H4.35285V0.36438H0V19.8575C1.03047 20.9 2.62947 21.3644 4.84143 21.3644C6.36937 21.3644 7.25771 20.8913 7.25771 20.8913V16.1166H6.65364C5.70312 16.1166 4.36173 15.9676 4.36173 14.8024L4.35285 14.7937Z" fill="white"/>
</svg>
