<svg width="258" height="92" viewBox="0 0 258 92" fill="none" xmlns="http://www.w3.org/2000/svg">
<rect x="3" y="42" width="65" height="8" fill="#CBD3D8"/>
<rect x="0.25" width="67" height="44" rx="3" fill="#0C8CE0"/>
<rect x="0.25" y="44" width="67" height="44" rx="3" fill="#5CC1ED"/>
<rect x="9.25" y="53" width="6" height="6" rx="1" fill="#3BA5D3"/>
<rect x="18.25" y="53" width="6" height="6" rx="1" fill="#3BA5D3"/>
<rect x="27.25" y="53" width="6" height="6" rx="1" fill="#3BA5D3"/>
<rect x="36.25" y="53" width="6" height="6" rx="1" fill="#3BA5D3"/>
<rect x="45.25" y="53" width="6" height="6" rx="1" fill="#3BA5D3"/>
<rect x="54.25" y="53" width="6" height="6" rx="1" fill="#3BA5D3"/>
<rect x="9.25" y="61" width="6" height="6" rx="1" fill="#3BA5D3"/>
<rect x="18.25" y="61" width="6" height="6" rx="1" fill="#3BA5D3"/>
<rect x="27.25" y="61" width="6" height="6" rx="1" fill="#3BA5D3"/>
<rect x="36.25" y="61" width="6" height="6" rx="1" fill="#3BA5D3"/>
<rect x="45.25" y="61" width="6" height="6" rx="1" fill="#3BA5D3"/>
<rect x="54.25" y="61" width="6" height="6" rx="1" fill="#3BA5D3"/>
<rect x="9.25" y="69" width="6" height="6" rx="1" fill="#3BA5D3"/>
<rect x="18.25" y="69" width="6" height="6" rx="1" fill="#3BA5D3"/>
<rect x="27.25" y="69" width="6" height="6" rx="1" fill="#3BA5D3"/>
<rect x="36.25" y="69" width="6" height="6" rx="1" fill="#3BA5D3"/>
<rect x="45.25" y="69" width="6" height="6" rx="1" fill="#3BA5D3"/>
<rect x="54.25" y="69" width="6" height="6" rx="1" fill="#3BA5D3"/>
<path d="M67.25 42H152.25V50H67.25V42Z" fill="#CBD3D8"/>
<rect width="105" height="12" transform="translate(152.25 12)" fill="#DFDFDD"/>
<rect x="244.25" y="16" width="9" height="4" rx="2" fill="#0C8CE0"/>
<rect x="157" y="15" width="14" height="2" fill="#CECECC"/>
<rect x="173" y="15" width="61" height="2" fill="#CECECC"/>
<rect x="157" y="19" width="14" height="2" fill="#CECECC"/>
<rect x="173" y="19" width="61" height="2" fill="#CECECC"/>
<rect width="105" height="12" transform="translate(152.25 26)" fill="#DFDFDD"/>
<rect x="249.25" y="30" width="4" height="4" rx="2" fill="#0C8CE0"/>
<rect x="243.25" y="30" width="4" height="4" rx="2" fill="#0C8CE0"/>
<rect x="157" y="29" width="30" height="2" fill="#CECECC"/>
<rect x="190" y="29" width="30" height="2" fill="#CECECC"/>
<rect x="157" y="33" width="30" height="2" fill="#CECECC"/>
<rect x="190" y="33" width="30" height="2" fill="#CECECC"/>
<rect width="105" height="12" transform="translate(152.25 40)" fill="#DFDFDD"/>
<rect x="249.25" y="44" width="4" height="4" rx="2" fill="#0C8CE0"/>
<rect x="243.25" y="44" width="4" height="4" rx="2" fill="#0C8CE0"/>
<rect x="157" y="43" width="30" height="2" fill="#CECECC"/>
<rect x="190" y="43" width="30" height="2" fill="#CECECC"/>
<rect x="157" y="47" width="30" height="2" fill="#CECECC"/>
<rect x="190" y="47" width="30" height="2" fill="#CECECC"/>
<rect width="105" height="12" transform="translate(152.25 54)" fill="#DFDFDD"/>
<rect x="249.25" y="58" width="4" height="4" rx="2" fill="#0C8CE0"/>
<rect x="243.25" y="58" width="4" height="4" rx="2" fill="#0C8CE0"/>
<rect x="157" y="57" width="30" height="2" fill="#CECECC"/>
<rect x="190" y="57" width="30" height="2" fill="#CECECC"/>
<rect x="157" y="61" width="30" height="2" fill="#CECECC"/>
<rect x="190" y="61" width="30" height="2" fill="#CECECC"/>
<rect width="105" height="12" transform="translate(152.25 68)" fill="#DFDFDD"/>
<rect x="157.25" y="71" width="96" height="2" fill="#CECECC"/>
<rect x="157.25" y="75" width="96" height="2" fill="#CECECC"/>
</svg>
