<svg width="28" height="28" viewBox="0 0 28 28" fill="none" xmlns="http://www.w3.org/2000/svg">
<path fill-rule="evenodd" clip-rule="evenodd" d="M21.2383 14.9733C24.1795 14.9735 26.5723 17.3432 26.5723 20.277C26.5722 23.2107 24.1794 25.5805 21.2383 25.5807C18.2969 25.5807 15.9034 23.2108 15.9033 20.277C15.9033 17.3431 18.2969 14.9733 21.2383 14.9733ZM18.0469 18.1656C17.6396 18.7701 17.4033 19.497 17.4033 20.277C17.4034 22.3728 19.1158 24.0807 21.2383 24.0807C22.0209 24.0806 22.7469 23.8471 23.3525 23.4489L18.0469 18.1656ZM21.2383 16.4733C20.4515 16.4733 19.721 16.7079 19.1133 17.11L24.4219 22.3961C24.8326 21.7899 25.0722 21.0607 25.0723 20.277C25.0723 18.1812 23.3606 16.4735 21.2383 16.4733Z" fill="white" fill-opacity="0.5"/>
<path fill-rule="evenodd" clip-rule="evenodd" d="M13.0742 2.41956C17.8007 2.41969 21.866 5.21945 23.6895 9.24182C23.6932 9.24039 23.6974 9.23935 23.7012 9.23792L23.7812 9.44885C23.8941 9.71151 23.9964 9.97935 24.0898 10.2516L24.2393 10.6383C24.2327 10.6408 24.2254 10.6426 24.2188 10.6451C24.4141 11.2891 24.5566 11.9562 24.6367 12.6422L23.1465 12.816C23.0797 12.2442 22.9619 11.6877 22.8027 11.149C20.5318 11.8969 17.3543 12.6564 13.5312 12.7155H12.5742C11.3999 12.6953 10.2857 12.609 9.23926 12.4781C9.20874 12.9714 9.19239 13.4767 9.19238 13.9918C9.19238 15.0661 9.26088 16.0984 9.3877 17.066C10.395 17.1933 11.4684 17.278 12.6006 17.2975H13.7021V18.7975H12.5742C11.5519 18.7799 10.5754 18.7095 9.64941 18.6061C9.86591 19.6347 10.1513 20.5604 10.4883 21.3483C10.8835 22.2722 11.3347 22.9723 11.7979 23.4303C12.2578 23.885 12.6886 24.0651 13.0742 24.0651C13.6806 24.065 14.2481 24.0208 14.8105 23.9205L15.0742 25.3971C14.4122 25.5151 13.755 25.565 13.0742 25.5651C6.65152 25.5651 1.42773 20.3835 1.42773 13.9918C1.42778 12.8295 1.6015 11.7074 1.92285 10.649C1.91312 10.6453 1.90324 10.642 1.89355 10.6383L2.43066 9.23792C2.43844 9.2409 2.44629 9.24372 2.4541 9.2467C4.28009 5.22249 8.35142 2.41956 13.0742 2.41956ZM3.48438 17.2809C4.52716 20.2731 6.95042 22.6293 10 23.5924C9.66799 23.1061 9.3704 22.5483 9.10938 21.9381C8.67199 20.9156 8.32121 19.7136 8.07812 18.3903C6.31462 18.1021 4.77073 17.6967 3.48438 17.2809ZM3.33984 11.152C3.07295 12.0532 2.92778 13.0059 2.92773 13.9918C2.92773 14.5207 2.96943 15.0403 3.04883 15.5475C4.32371 16.0046 5.94202 16.4869 7.84766 16.8297C7.74542 15.92 7.69238 14.9686 7.69238 13.9918C7.69239 13.4025 7.71196 12.8226 7.75 12.2555C6.05696 11.9604 4.57543 11.558 3.33984 11.152ZM13.0742 3.91956C12.6887 3.91956 12.2577 4.09966 11.7979 4.55432C11.3348 5.01232 10.8835 5.71261 10.4883 6.63635C9.98387 7.81559 9.59495 9.30341 9.37988 10.983C10.3895 11.1108 11.4655 11.1959 12.6006 11.2155C14.0867 11.2383 15.4788 11.1447 16.7617 10.9821C16.4854 8.84814 15.9351 7.04173 15.2363 5.78088C14.4927 4.43911 13.7097 3.91993 13.0742 3.91956ZM9.99902 4.39221C7.28235 5.25032 5.06349 7.21463 3.87402 9.74866C5.01002 10.119 6.36067 10.4828 7.89648 10.7565C8.12779 8.97236 8.54709 7.36105 9.10938 6.04651C9.37028 5.43661 9.66727 4.87852 9.99902 4.39221ZM16.1367 4.38928C16.2816 4.60111 16.42 4.82276 16.5479 5.05334C17.3599 6.51864 17.9499 8.50845 18.2441 10.7555C19.7928 10.479 21.1468 10.1124 22.2715 9.74475C21.0822 7.20762 18.8592 5.24458 16.1367 4.38928Z" fill="white" fill-opacity="0.5"/>
</svg>
